<?xml version="1.0" encoding="utf-8"?>
<!-- Generator: Adobe Illustrator 16.0.0, SVG Export Plug-In . SVG Version: 6.00 Build 0)  -->
<!DOCTYPE svg PUBLIC "-//W3C//DTD SVG 1.1//EN" "http://www.w3.org/Graphics/SVG/1.1/DTD/svg11.dtd" [
	<!ENTITY ns_flows "http://ns.adobe.com/Flows/1.0/">
	<!ENTITY ns_extend "http://ns.adobe.com/Extensibility/1.0/">
	<!ENTITY ns_ai "http://ns.adobe.com/AdobeIllustrator/10.0/">
	<!ENTITY ns_graphs "http://ns.adobe.com/Graphs/1.0/">
]>
<svg version="1.1" id="Layer_1" xmlns:x="&ns_extend;" xmlns:i="&ns_ai;" xmlns:graph="&ns_graphs;"
	 xmlns="http://www.w3.org/2000/svg" xmlns:xlink="http://www.w3.org/1999/xlink" xmlns:a="http://ns.adobe.com/AdobeSVGViewerExtensions/3.0/"
	 x="0px" y="0px" width="291.139px" height="72.881px" viewBox="0 0 291.139 72.881"
	 style="enable-background:new 0 0 291.139 72.881;" xml:space="preserve">
<style type="text/css">
<![CDATA[
	.st0{fill:#F15B2B;}
	.st1{fill:#424143;}
]]>
</style>
<path class="st1" d="M130.866,65.736c-3.377,2.812-6.127,4.705-8.244,5.687c-2.107,0.977-4.496,1.458-7.163,1.458
	c-5.008,0-9.227-1.895-12.64-5.676c-3.388-3.799-5.107-8.484-5.107-14.081c0-6.167,2.038-11.361,6.106-15.601
	c4.083-4.246,9.075-6.36,14.995-6.36c4.024,0,8.042,1.148,12.053,3.421V15.562c0-6.096-1.689-9.051-5.076-8.852l-1.754,0.096
	c-0.238,0-0.457-0.034-0.658-0.096c-0.324-0.136-0.515-0.375-0.54-0.738c-0.066-0.665,0.422-1.069,1.452-1.193
	c3.439-0.42,7.363-1.893,11.728-4.438c0.363-0.223,0.686-0.34,0.95-0.34c0.508,0,0.769,0.357,0.769,1.06l0.039,0.871v61.307
	c0,3.638,1.152,5.451,3.436,5.451l2.951-0.096l0.462,0.046c0.361,0.123,0.538,0.378,0.538,0.752c0,0.693-0.597,1.107-1.804,1.229
	c-1.366,0.126-2.241,0.224-2.601,0.285l-2.804,0.438c-2.217,0.318-3.678,0.659-4.422,1.004c-0.628,0.354-1.125,0.534-1.492,0.534
	c-0.774,0.035-1.171-0.766-1.171-2.392V65.736z M130.866,59.903V44.025c0-2.892-0.721-5.008-2.183-6.359
	c-3.277-3.052-7.177-4.575-11.686-4.575c-4.011,0-7.27,1.477-9.725,4.432c-2.472,2.951-3.72,6.847-3.72,11.65
	c0,5.276,1.627,9.829,4.855,13.719c3.237,3.857,7.051,5.796,11.48,5.796c3.244,0,5.899-0.818,7.935-2.438
	C129.854,64.627,130.866,62.51,130.866,59.903"/>
<path class="st1" d="M173.295,31.163c5.985,0,11.13,2.025,15.43,6.091c4.294,4.067,6.436,8.904,6.436,14.528
	c0,6.101-2.12,11.145-6.346,15.128c-4.229,3.978-9.574,5.971-16.028,5.971c-6.324,0-11.523-1.942-15.608-5.799
	c-4.081-3.872-6.122-8.828-6.122-14.876c0-5.833,2.17-10.808,6.491-14.896C161.88,33.209,167.129,31.163,173.295,31.163
	 M172.017,33.091c-4.157,0-7.511,1.487-10.052,4.455c-2.534,2.973-3.811,6.876-3.811,11.708c0,6.138,1.59,11.268,4.755,15.406
	c3.187,4.13,7.124,6.201,11.84,6.201c4.128,0,7.375-1.471,9.767-4.393c2.377-2.927,3.556-6.906,3.556-11.92
	c0-6.325-1.493-11.494-4.485-15.48C180.6,35.085,176.732,33.091,172.017,33.091"/>
<path class="st1" d="M213.219,36.995v24.262c0,3.158,0.478,5.191,1.402,6.137c1.366,1.368,3.315,2.062,5.842,2.062
	c2.027,0,3.747-0.345,5.156-1.057l2.593-1.21l0.289-0.09c0.4,0,0.604,0.179,0.604,0.525c0,1.049-1.31,2.188-3.946,3.416
	c-2.633,1.228-5.076,1.841-7.346,1.841c-7.657,0-11.486-3.853-11.486-11.548V36.995h-4.451c-0.873,0-1.303-0.236-1.303-0.729
	c0-0.454,0.43-1.028,1.303-1.742c3.901-3.197,6.878-6.379,8.947-9.578c0.893-1.416,1.523-2.131,1.898-2.131
	c0.473,0,0.692,0.41,0.692,1.258l-0.194,8.341h10.638c1.461,0,2.604-0.257,3.4-0.774c0.509-0.345,0.855-0.54,1.086-0.576
	c0.38-0.063,0.547,0.116,0.505,0.534c0,0.158-0.142,0.568-0.439,1.22l-1.151,2.775c-0.366,0.931-1.1,1.402-2.206,1.402H213.219z"/>
<path class="st1" d="M266.92,20.767c0,2.813-2.273,5.076-5.076,5.076c-2.806,0-5.086-2.264-5.086-5.076
	c0-2.8,2.28-5.086,5.086-5.086C264.647,15.681,266.92,17.967,266.92,20.767"/>
<path class="st1" d="M291.139,44.042c0,2.81-2.281,5.078-5.086,5.078c-2.796,0-5.077-2.268-5.077-5.078
	c0-2.802,2.281-5.085,5.077-5.085C288.858,38.957,291.139,41.24,291.139,44.042"/>
<path class="st0" d="M10.164,44.042c0,2.81-2.282,5.078-5.086,5.078C2.282,49.119,0,46.852,0,44.042
	c0-2.802,2.282-5.085,5.077-5.085C7.882,38.957,10.164,41.24,10.164,44.042"/>
<path class="st1" d="M266.881,67.466c0,2.8-2.273,5.074-5.076,5.074c-2.806,0-5.086-2.274-5.086-5.074
	c0-2.81,2.28-5.089,5.086-5.089C264.608,62.377,266.881,64.656,266.881,67.466"/>
<path class="st1" d="M263.538,44.162c0,0.943-0.763,1.694-1.692,1.694c-0.935,0-1.695-0.751-1.695-1.694
	c0-0.938,0.761-1.693,1.695-1.693C262.775,42.468,263.538,43.224,263.538,44.162"/>
<path class="st1" d="M287.751,67.467c0,0.93-0.75,1.689-1.694,1.689c-0.935,0-1.693-0.76-1.693-1.689
	c0-0.935,0.759-1.697,1.693-1.697C287.001,65.77,287.751,66.532,287.751,67.467"/>
<path class="st1" d="M287.751,20.77c0,0.935-0.75,1.698-1.694,1.698c-0.924,0-1.693-0.763-1.693-1.698c0-0.93,0.77-1.69,1.693-1.69
	C287.001,19.08,287.751,19.84,287.751,20.77"/>
</svg>
